<mxfile host="app.diagrams.net" modified="2022-05-17T05:07:03.015Z" agent="5.0 (Windows NT 10.0; Win64; x64) AppleWebKit/537.36 (KHTML, like Gecko) Chrome/101.0.4951.54 Safari/537.36" etag="KkaU8VooFUE_9Jc4gJbl" version="18.0.5" type="github">
  <diagram id="L1j2D4mzBUiIxQzNPNXT" name="Page-1">
    <mxGraphModel dx="1038" dy="547" grid="1" gridSize="10" guides="1" tooltips="1" connect="1" arrows="1" fold="1" page="1" pageScale="1" pageWidth="827" pageHeight="1169" math="0" shadow="0">
      <root>
        <mxCell id="0" />
        <mxCell id="1" parent="0" />
        <mxCell id="G56ryyFdqMxWQ_o4h2ej-4" value="Prestazione" style="swimlane;childLayout=stackLayout;horizontal=1;startSize=30;horizontalStack=0;fillColor=#008cff;fontColor=#FFFFFF;rounded=1;fontSize=14;fontStyle=0;strokeWidth=2;resizeParent=0;resizeLast=1;shadow=0;dashed=0;align=center;" parent="1" vertex="1">
          <mxGeometry x="300" y="310" width="160" height="120" as="geometry" />
        </mxCell>
        <mxCell id="G56ryyFdqMxWQ_o4h2ej-5" value="CoPrestazione        {PK}&#xa;Descrizione&#xa;Giorno&#xa;Ora&#xa;Pagato" style="align=left;strokeColor=none;fillColor=none;spacingLeft=4;fontSize=12;verticalAlign=top;resizable=0;rotatable=0;part=1;fontStyle=1" parent="G56ryyFdqMxWQ_o4h2ej-4" vertex="1">
          <mxGeometry y="30" width="160" height="90" as="geometry" />
        </mxCell>
        <mxCell id="G56ryyFdqMxWQ_o4h2ej-6" value="&#xa;Cliente" style="swimlane;childLayout=stackLayout;horizontal=1;startSize=38;horizontalStack=0;fillColor=#008cff;fontColor=#FFFFFF;rounded=1;fontSize=14;fontStyle=0;strokeWidth=2;resizeParent=0;resizeLast=1;shadow=0;dashed=0;align=center;" parent="1" vertex="1">
          <mxGeometry x="610" y="600" width="160" height="160" as="geometry" />
        </mxCell>
        <mxCell id="G56ryyFdqMxWQ_o4h2ej-7" value="CodCliente         {PK}&#xa;Cognome&#xa;Nome&#xa;Indirizzo&#xa;Tel&#xa;Cell&#xa;DataDiNscita" style="align=left;strokeColor=none;fillColor=none;spacingLeft=4;fontSize=12;verticalAlign=top;resizable=0;rotatable=0;part=1;fontStyle=0" parent="G56ryyFdqMxWQ_o4h2ej-6" vertex="1">
          <mxGeometry y="38" width="160" height="122" as="geometry" />
        </mxCell>
        <mxCell id="G56ryyFdqMxWQ_o4h2ej-8" value="" style="edgeStyle=entityRelationEdgeStyle;fontSize=12;html=1;endArrow=ERzeroToMany;endFill=1;startArrow=ERzeroToMany;exitX=1;exitY=0.125;exitDx=0;exitDy=0;exitPerimeter=0;" parent="1" source="T7YAln1bSrvXzUfDDgCb-1" edge="1">
          <mxGeometry width="100" height="100" relative="1" as="geometry">
            <mxPoint x="180" y="320" as="sourcePoint" />
            <mxPoint x="300" y="320" as="targetPoint" />
          </mxGeometry>
        </mxCell>
        <mxCell id="G56ryyFdqMxWQ_o4h2ej-10" value="Citta" style="swimlane;childLayout=stackLayout;horizontal=1;startSize=32;horizontalStack=0;fillColor=#008cff;fontColor=#FFFFFF;rounded=1;fontSize=14;fontStyle=0;strokeWidth=2;resizeParent=0;resizeLast=1;shadow=0;dashed=0;align=center;" parent="1" vertex="1">
          <mxGeometry x="620" y="450" width="160" height="90" as="geometry" />
        </mxCell>
        <mxCell id="G56ryyFdqMxWQ_o4h2ej-11" value="Cap         {PK}&#xa;Comune&#xa;Provincia" style="align=left;strokeColor=none;fillColor=none;spacingLeft=4;fontSize=12;verticalAlign=top;resizable=0;rotatable=0;part=1;fontStyle=0" parent="G56ryyFdqMxWQ_o4h2ej-10" vertex="1">
          <mxGeometry y="32" width="160" height="58" as="geometry" />
        </mxCell>
        <mxCell id="G56ryyFdqMxWQ_o4h2ej-12" value="" style="fontSize=12;html=1;endArrow=ERzeroToMany;rounded=1;endFill=1;startFill=1;elbow=vertical;entryX=0.681;entryY=0.008;entryDx=0;entryDy=0;entryPerimeter=0;" parent="1" edge="1">
          <mxGeometry width="100" height="100" relative="1" as="geometry">
            <mxPoint x="700" y="540" as="sourcePoint" />
            <mxPoint x="700" y="600" as="targetPoint" />
          </mxGeometry>
        </mxCell>
        <mxCell id="G56ryyFdqMxWQ_o4h2ej-20" value="M" style="text;html=1;strokeColor=none;fillColor=none;align=center;verticalAlign=middle;whiteSpace=wrap;rounded=0;" parent="1" vertex="1">
          <mxGeometry x="270" y="340" width="20" height="20" as="geometry" />
        </mxCell>
        <mxCell id="G56ryyFdqMxWQ_o4h2ej-21" value="1" style="text;html=1;strokeColor=none;fillColor=none;align=center;verticalAlign=middle;whiteSpace=wrap;rounded=0;" parent="1" vertex="1">
          <mxGeometry x="720" y="540" width="20" height="20" as="geometry" />
        </mxCell>
        <mxCell id="G56ryyFdqMxWQ_o4h2ej-22" value="M" style="text;html=1;strokeColor=none;fillColor=none;align=center;verticalAlign=middle;whiteSpace=wrap;rounded=0;" parent="1" vertex="1">
          <mxGeometry x="720" y="575" width="20" height="20" as="geometry" />
        </mxCell>
        <mxCell id="T7YAln1bSrvXzUfDDgCb-1" value="&#xa;Medico" style="swimlane;childLayout=stackLayout;horizontal=1;startSize=38;horizontalStack=0;fillColor=#008cff;fontColor=#FFFFFF;rounded=1;fontSize=14;fontStyle=0;strokeWidth=2;resizeParent=0;resizeLast=1;shadow=0;dashed=0;align=center;" parent="1" vertex="1">
          <mxGeometry x="40" y="300" width="160" height="170" as="geometry" />
        </mxCell>
        <mxCell id="T7YAln1bSrvXzUfDDgCb-2" value="CodMedico         {PK}&#xa;Cognome&#xa;Nome&#xa;Indirizzo&#xa;Tel&#xa;Cell&#xa;DataDiNscita&#xa;Specializzazione&#xa;&#xa;" style="align=left;strokeColor=none;fillColor=none;spacingLeft=4;fontSize=12;verticalAlign=top;resizable=0;rotatable=0;part=1;fontStyle=0" parent="T7YAln1bSrvXzUfDDgCb-1" vertex="1">
          <mxGeometry y="38" width="160" height="132" as="geometry" />
        </mxCell>
        <mxCell id="T7YAln1bSrvXzUfDDgCb-3" value="" style="fontSize=12;html=1;endArrow=ERzeroToMany;rounded=1;endFill=1;startFill=1;elbow=vertical;entryX=0.625;entryY=0;entryDx=0;entryDy=0;entryPerimeter=0;exitX=0.185;exitY=1.042;exitDx=0;exitDy=0;exitPerimeter=0;" parent="1" source="P5sWvy1uf68khmVUnmsY-2" target="G56ryyFdqMxWQ_o4h2ej-4" edge="1">
          <mxGeometry width="100" height="100" relative="1" as="geometry">
            <mxPoint x="400" y="250" as="sourcePoint" />
            <mxPoint x="229" y="655" as="targetPoint" />
          </mxGeometry>
        </mxCell>
        <mxCell id="T7YAln1bSrvXzUfDDgCb-4" value="M" style="text;html=1;strokeColor=none;fillColor=none;align=center;verticalAlign=middle;whiteSpace=wrap;rounded=0;" parent="1" vertex="1">
          <mxGeometry x="210" y="330" width="20" height="20" as="geometry" />
        </mxCell>
        <mxCell id="P5sWvy1uf68khmVUnmsY-1" value="&#xa;Sala" style="swimlane;childLayout=stackLayout;horizontal=1;startSize=38;horizontalStack=0;fillColor=#008cff;fontColor=#FFFFFF;rounded=1;fontSize=14;fontStyle=0;strokeWidth=2;resizeParent=0;resizeLast=1;shadow=0;dashed=0;align=center;" parent="1" vertex="1">
          <mxGeometry x="370" y="150" width="160" height="90" as="geometry" />
        </mxCell>
        <mxCell id="P5sWvy1uf68khmVUnmsY-2" value="CodSala         {PK}&#xa;Descrizione&#xa;&#xa;" style="align=left;strokeColor=none;fillColor=none;spacingLeft=4;fontSize=12;verticalAlign=top;resizable=0;rotatable=0;part=1;fontStyle=0" parent="P5sWvy1uf68khmVUnmsY-1" vertex="1">
          <mxGeometry y="38" width="160" height="52" as="geometry" />
        </mxCell>
        <mxCell id="P5sWvy1uf68khmVUnmsY-3" value="" style="fontSize=12;html=1;endArrow=ERzeroToMany;rounded=1;endFill=1;startFill=1;elbow=vertical;exitX=0.553;exitY=-0.012;exitDx=0;exitDy=0;exitPerimeter=0;entryX=0.442;entryY=1.024;entryDx=0;entryDy=0;entryPerimeter=0;" parent="1" source="P5sWvy1uf68khmVUnmsY-7" target="G56ryyFdqMxWQ_o4h2ej-5" edge="1">
          <mxGeometry width="100" height="100" relative="1" as="geometry">
            <mxPoint x="370" y="590" as="sourcePoint" />
            <mxPoint x="320" y="480" as="targetPoint" />
          </mxGeometry>
        </mxCell>
        <mxCell id="P5sWvy1uf68khmVUnmsY-7" value="Prenotazione" style="swimlane;childLayout=stackLayout;horizontal=1;startSize=30;horizontalStack=0;fillColor=#008cff;fontColor=#FFFFFF;rounded=1;fontSize=14;fontStyle=0;strokeWidth=2;resizeParent=0;resizeLast=1;shadow=0;dashed=0;align=center;" parent="1" vertex="1">
          <mxGeometry x="280" y="600" width="160" height="120" as="geometry" />
        </mxCell>
        <mxCell id="P5sWvy1uf68khmVUnmsY-8" value="Id        {PK}&#xa;Data&#xa;Effettuata" style="align=left;strokeColor=none;fillColor=none;spacingLeft=4;fontSize=12;verticalAlign=top;resizable=0;rotatable=0;part=1;fontStyle=1" parent="P5sWvy1uf68khmVUnmsY-7" vertex="1">
          <mxGeometry y="30" width="160" height="90" as="geometry" />
        </mxCell>
        <mxCell id="P5sWvy1uf68khmVUnmsY-13" value="" style="fontSize=12;html=1;endArrow=ERzeroToMany;rounded=1;endFill=1;startFill=1;elbow=vertical;entryX=1;entryY=0.167;entryDx=0;entryDy=0;entryPerimeter=0;" parent="1" target="P5sWvy1uf68khmVUnmsY-7" edge="1">
          <mxGeometry width="100" height="100" relative="1" as="geometry">
            <mxPoint x="610" y="620" as="sourcePoint" />
            <mxPoint x="450" y="620" as="targetPoint" />
          </mxGeometry>
        </mxCell>
        <mxCell id="P5sWvy1uf68khmVUnmsY-14" value="1" style="text;html=1;strokeColor=none;fillColor=none;align=center;verticalAlign=middle;whiteSpace=wrap;rounded=0;" parent="1" vertex="1">
          <mxGeometry x="570" y="590" width="20" height="20" as="geometry" />
        </mxCell>
        <mxCell id="P5sWvy1uf68khmVUnmsY-15" value="M" style="text;html=1;strokeColor=none;fillColor=none;align=center;verticalAlign=middle;whiteSpace=wrap;rounded=0;" parent="1" vertex="1">
          <mxGeometry x="470" y="590" width="20" height="20" as="geometry" />
        </mxCell>
        <mxCell id="Z2EIlH-QpFUKDo44jXo1-1" value="M" style="text;html=1;strokeColor=none;fillColor=none;align=center;verticalAlign=middle;whiteSpace=wrap;rounded=0;" parent="1" vertex="1">
          <mxGeometry x="383.5" y="440" width="20" height="20" as="geometry" />
        </mxCell>
        <mxCell id="Z2EIlH-QpFUKDo44jXo1-2" value="1" style="text;html=1;strokeColor=none;fillColor=none;align=center;verticalAlign=middle;whiteSpace=wrap;rounded=0;" parent="1" vertex="1">
          <mxGeometry x="383.5" y="570" width="20" height="20" as="geometry" />
        </mxCell>
        <mxCell id="Z2EIlH-QpFUKDo44jXo1-3" value="TipoPrestazione" style="swimlane;childLayout=stackLayout;horizontal=1;startSize=30;horizontalStack=0;fillColor=#008cff;fontColor=#FFFFFF;rounded=1;fontSize=14;fontStyle=0;strokeWidth=2;resizeParent=0;resizeLast=1;shadow=0;dashed=0;align=center;" parent="1" vertex="1">
          <mxGeometry x="560" y="310" width="160" height="120" as="geometry" />
        </mxCell>
        <mxCell id="Z2EIlH-QpFUKDo44jXo1-4" value="CodTipo  {PK}&#xa;Descrizione&#xa;Prezzo&#xa;Durata" style="align=left;strokeColor=none;fillColor=none;spacingLeft=4;fontSize=12;verticalAlign=top;resizable=0;rotatable=0;part=1;fontStyle=1" parent="Z2EIlH-QpFUKDo44jXo1-3" vertex="1">
          <mxGeometry y="30" width="160" height="90" as="geometry" />
        </mxCell>
        <mxCell id="Z2EIlH-QpFUKDo44jXo1-6" value="1" style="text;html=1;strokeColor=none;fillColor=none;align=center;verticalAlign=middle;whiteSpace=wrap;rounded=0;" parent="1" vertex="1">
          <mxGeometry x="530" y="310" width="20" height="20" as="geometry" />
        </mxCell>
        <mxCell id="Z2EIlH-QpFUKDo44jXo1-7" value="M" style="text;html=1;strokeColor=none;fillColor=none;align=center;verticalAlign=middle;whiteSpace=wrap;rounded=0;" parent="1" vertex="1">
          <mxGeometry x="470" y="310" width="20" height="20" as="geometry" />
        </mxCell>
        <mxCell id="Z2EIlH-QpFUKDo44jXo1-9" value="" style="fontSize=12;html=1;endArrow=ERzeroToMany;rounded=1;endFill=1;startFill=1;elbow=vertical;exitX=-0.003;exitY=0.178;exitDx=0;exitDy=0;exitPerimeter=0;" parent="1" source="Z2EIlH-QpFUKDo44jXo1-3" edge="1">
          <mxGeometry width="100" height="100" relative="1" as="geometry">
            <mxPoint x="510" y="380" as="sourcePoint" />
            <mxPoint x="460" y="331" as="targetPoint" />
            <Array as="points" />
          </mxGeometry>
        </mxCell>
        <mxCell id="01OTaNG5_IqhgBTQzLVV-1" value="Registrare" style="text;html=1;strokeColor=none;fillColor=none;align=center;verticalAlign=middle;whiteSpace=wrap;rounded=0;" vertex="1" parent="1">
          <mxGeometry x="490" y="635" width="60" height="20" as="geometry" />
        </mxCell>
        <mxCell id="01OTaNG5_IqhgBTQzLVV-2" value="Richiedere" style="text;html=1;strokeColor=none;fillColor=none;align=center;verticalAlign=middle;whiteSpace=wrap;rounded=0;" vertex="1" parent="1">
          <mxGeometry x="390" y="485" width="60" height="20" as="geometry" />
        </mxCell>
        <mxCell id="01OTaNG5_IqhgBTQzLVV-3" value="Risiedere" style="text;html=1;strokeColor=none;fillColor=none;align=center;verticalAlign=middle;whiteSpace=wrap;rounded=0;" vertex="1" parent="1">
          <mxGeometry x="620" y="555" width="60" height="20" as="geometry" />
        </mxCell>
        <mxCell id="01OTaNG5_IqhgBTQzLVV-7" value="1" style="text;html=1;strokeColor=none;fillColor=none;align=center;verticalAlign=middle;whiteSpace=wrap;rounded=0;" vertex="1" parent="1">
          <mxGeometry x="414" y="250" width="20" height="20" as="geometry" />
        </mxCell>
        <mxCell id="01OTaNG5_IqhgBTQzLVV-8" value="M" style="text;html=1;strokeColor=none;fillColor=none;align=center;verticalAlign=middle;whiteSpace=wrap;rounded=0;" vertex="1" parent="1">
          <mxGeometry x="370" y="280" width="20" height="20" as="geometry" />
        </mxCell>
      </root>
    </mxGraphModel>
  </diagram>
</mxfile>
